<svg xmlns="http://www.w3.org/2000/svg" viewBox="0 0 334.08 333.51"><defs><style>.cls-1{fill:#fff;}</style></defs><title>Risorsa 2</title><g id="Livello_2" data-name="Livello 2"><g id="Livello_1-2" data-name="Livello 1"><path class="cls-1" d="M167,0c86.58-.58,167,67.87,167.09,166.63.09,96.59-77.73,166.77-166.94,166.88C75.2,333.62-.07,258.3,0,166.53S75,.16,167,0ZM2.92,166.62A164.29,164.29,0,1,0,167.29,2.46,164,164,0,0,0,2.92,166.62Z"/><path class="cls-1" d="M164.45,294.24C94,292.48,37.79,233.8,39.59,164a127.59,127.59,0,0,1,255.14,5C293.31,240,234.62,296,164.45,294.24Zm2.91-252.6c-68.87-.18-125,55.75-125.29,124.77-.27,68.86,55.59,125,124.7,125.23s125.53-55.75,125.5-124.89A125.14,125.14,0,0,0,167.36,41.64Z"/><path class="cls-1" d="M149.22,309c1.66-2.88,2.9-4.66,3.76-6.6,1.55-3.52,4.23-2.94,7.14-2.47,3.1.5,2.83,2.69,2.9,4.87.2,6,.47,11.94.64,17.92.05,2.11.44,4.82-3,4.35-2.53-.34-6.14.42-6-4.08a12.58,12.58,0,0,0-.8-5.38c-1.19,2-2.26,4-3.59,5.9-2.06,2.92-4.51,2.66-5.83-.65-.91-2.27-1.48-4.68-2.23-7.13-1.83,1-1.28,2.78-1.69,4.1-1.37,4.37-4,5.61-8.13,3.67-1.76-.83-1.34-2.1-1-3.34,2-6.68,4-13.34,6-20,.55-1.87,1.56-2.94,3.59-2.49,2.27.52,5.24-.31,6,3.16C147.59,303.23,148.31,305.6,149.22,309Zm-.81,5.55c-1.19-4.76-2.14-8.2-2.9-11.69-.46-2.14-1.67-3-3.75-3.25-2.47-.29-2.61,1.49-3.08,3.06-1.52,5.09-3.08,10.18-4.53,15.3-.41,1.43-1.67,3.28,1,4s3-1.1,3.56-2.95c1-3.32,1-7,3.64-10.75,1.29,4.61,2.34,8.43,3.43,12.24.3,1.06.24,2.53,1.8,2.56,1.17,0,1.41-1.25,1.94-2,2.18-3.34,3.49-7.27,7.28-11.17,0,5,0,8.81,0,12.58,0,2.15,1.44,2.35,3,2.47,2.12.17,1.9-1.36,1.85-2.67-.17-5.5-.39-11-.56-16.47-.06-1.86.08-3.59-2.5-4.09-2.34-.45-3.32.64-4.27,2.42C152.61,307.29,150.79,310.36,148.41,314.56Z"/><path class="cls-1" d="M296.52,235.49c3.3,1.7,5.39,2.93,7.59,3.86,2.85,1.2,3.26,2.86,1.67,5.42-1.33,2.14-2.08,4.57-5.56,2.62-5.21-2.94-10.7-5.38-16-8.2-1.58-.85-4.54-1.23-3.57-3.91.89-2.48,1.48-5.59,5-6.21,3.73-.64,7.43-1.49,11.74-2.37-1.65-2.36-3.92-3-5.87-3.94-2.85-1.3-3.71-2.73-2-5.72,1.56-2.71,2.76-4.11,6.1-2.17,5,2.93,10.38,5.26,15.52,8,1.48.78,4.22,1.14,3.58,3.43-.71,2.56-1.42,5.66-4.81,6.39C306,233.57,301.93,234.37,296.52,235.49ZM304,227a25.27,25.27,0,0,1-2.93,1c-4.57.91-9.13,1.86-13.73,2.63a5.11,5.11,0,0,0-4.4,4.17c-.53,2.32,1.9,2.4,3.2,3.1,4.69,2.52,9.48,4.84,14.19,7.32,1.67.87,2.61.62,3.55-1.11,1.05-1.92.16-2.63-1.35-3.39-3.54-1.76-7-3.58-11.36-5.8,6.13-2.11,11.54-2.7,16.86-3.61a5.16,5.16,0,0,0,4.37-4.22c.54-2.28-2-2.32-3.25-3-4.39-2.38-8.87-4.57-13.32-6.84-1.6-.82-3-2.1-4.38.63-1.44,2.91.94,3,2.34,3.77C297,223.38,300.2,225,304,227Z"/><path class="cls-1" d="M14.33,151.16c2.57.62,4.31.54,4.7-2.94.42-3.68-2.1-3.42-4-3.43-3.79,0-4.85-1.6-4.47-5.26.41-3.9,2.5-3.94,5.53-3.5,5.92.86,11.86,1.64,17.82,2.1,3.82.29,3.5,2.46,3.3,5.17s-1,4.25-4.27,3.81c-2.08-.28-4.94-2.3-6.28,1.55-1.28,3.68.64,4.2,3.62,4.51,5.6.59,6.12,1.59,5,6.54-.6,2.7-2.12,3-4.37,2.68-5.78-.76-11.57-1.42-17.35-2.14-2.95-.36-5.53-.74-5-5C9.07,151.38,11,150.52,14.33,151.16ZM16,153.3c-1.78.63-4.73-1.79-5.16,1.94-.47,4,2.95,2.75,4.86,3.08,4.75.8,9.57,1.17,14.32,1.93,3.3.52,3.85-1.34,3.34-3.74-.34-1.63-2.2-1.23-3.42-1.24-4.82,0-6.23-1.71-5.51-6.92S28,144.44,31,144.73a5.43,5.43,0,0,1,1,.17c2.05.54,3.11-.22,3.42-2.34.35-2.37-1.34-2.29-2.78-2.48-5.76-.75-11.54-1.42-17.29-2.21-1.67-.23-2.5.24-2.66,2-.14,1.5,0,2.65,1.85,2.85a16.27,16.27,0,0,0,2.45.41c3.73-.18,5.09,1.24,4.11,5.07C20.34,151.05,21.41,155.26,16,153.3Z"/><path class="cls-1" d="M114.12,318c-9.69-.54-14.64-7.84-11.35-16.86,1.37-3.74,3.09-7.35,4.39-11.11,1.17-3.35,3.18-2.56,5.5-1.58s4.29,1.86,2.82,5c-1.6,3.47-3,7-4.28,10.62-.58,1.66-1.23,3.81,1.06,4.78,2.52,1.06,3.59-.83,4.41-2.77,1.49-3.51,3.06-7,4.4-10.57,1.28-3.41,3.39-2.21,5.61-1.33s4,1.63,2.61,4.64c-2,4.37-3.51,9-5.59,13.3C121.84,316,118.69,318.28,114.12,318Zm.33-2a7.6,7.6,0,0,0,7.53-4.77c1.69-3.79,3.18-7.68,4.87-11.47.78-1.75,1.06-3-1.17-3.9-2.47-1-2.85.72-3.49,2.24-1.15,2.76-2.24,5.55-3.43,8.3-1.39,3.21-3.07,6.38-7.36,4.52-4-1.71-3.09-5-1.87-8.09s2.42-6.21,3.77-9.24c.86-1.93,0-2.63-1.62-3.35s-2.4-.08-3,1.39c-1.33,3.41-2.8,6.76-4.07,10.19C101.73,309.63,106,315.74,114.45,316Z"/><path class="cls-1" d="M51.39,273.15c-5.91-.57-9.19-4.46-11.51-9.23-2.09-4.29-.81-8.18,2.69-11.19,3.77-3.25,7.79-6.21,11.62-9.39,2.71-2.25,3.73,0,5,1.69s3.2,3.26.43,5.34c-3.19,2.38-6.35,4.82-9.42,7.35-1.55,1.27-3.2,2.81-1.45,5s3.63.77,5.2-.37q4.82-3.54,9.42-7.35c1.71-1.41,3.1-1.22,4.06.61s4.57,3.43,2,5.7c-4.72,4.13-9.5,8.33-15.19,11.18A11.52,11.52,0,0,1,51.39,273.15Zm-.25-2a9.92,9.92,0,0,0,1.86-.38c5.54-2.18,9.57-6.52,14.18-10,1.63-1.23-.14-2.32-.78-3.33-.92-1.45-1.87-.78-2.87,0-2.73,2.17-5.47,4.34-8.27,6.43s-5.59,3.47-8.25,0-.12-5.84,2.33-7.92,5.19-4.16,7.88-6.13c1.53-1.12,1.71-2.08.5-3.65s-2.26-1.4-3.66-.26c-3.21,2.64-6.55,5.12-9.74,7.78-3,2.47-4.27,5.58-2.63,9.32C43.5,267.13,46.25,270.33,51.14,271.13Z"/><path class="cls-1" d="M316.32,151c-.75,2.65-1.08,3.91-1.46,5.15-1.15,3.81-3.33,6.42-7.64,6.67-4.57.26-7.69-1.86-9.41-5.9a11.73,11.73,0,0,1-.65-8.75c.78-2.13.55-5.51,4.45-4.36,2.89.85,6.1,1.68,3.53,6a2.66,2.66,0,0,0,.42,3.16c1.9-.84,1.62-2.48,1.91-3.86.81-3.8,3-6.29,6.95-6.78s7.05,1.33,9.1,4.78a10.87,10.87,0,0,1,1.24,7.71c-.39,2-.08,5.3-3.61,4.67-2.88-.5-6.27-1.33-4-5.76C317.32,153.38,316.92,152.81,316.32,151Zm6.52,2.2c.07-6.11-3.81-9.82-8.9-8.77-4,.83-4.29,4.18-5,7.23-.46,2-.92,4.33-3.57,3.83s-2.9-2.89-2.56-5.19c.12-.81.59-1.56.73-2.36.24-1.36-.9-1.58-1.8-1.93s-1.59-.39-2,.64a11.52,11.52,0,0,0,.43,10.59c1.76,3.25,4.76,3.95,8.15,3.35,4.29-.77,4.37-4.48,5.18-7.64.43-1.66.89-3.5,3-3.33s2.56,2,2.43,3.72c-.14,2-.3,4.15,2.31,3.86C323.44,156.93,322.47,154.49,322.84,153.17Z"/><path class="cls-1" d="M23.82,217.55c1.12-1.64.65-3.17.69-4.6.1-4.44,2.26-7.08,6.58-8.14s7.43.73,9.75,4.18a9.19,9.19,0,0,1,1.48,3.66c.39,2.75,2.21,6.17-1.62,7.75-3,1.22-5.61-1.48-6.21-6.05-1.48,1-1,2.39-1.05,3.5-.22,4.71-2.31,7.87-7.11,8.9s-8-1.39-10.29-5.21a12.21,12.21,0,0,1-1.71-7.17c.16-2.63-.27-5.63,4-5.31,3.33.25,5.51,1.17,4.2,5.19A2.73,2.73,0,0,0,23.82,217.55Zm.3,7.44c4.72.14,7.07-2.46,7.21-8,.05-2.11-.58-4.94,2.24-5.31s3.27,2.23,3.36,4.5a2,2,0,0,0,2.13,2.18c.71,0,1.46-.11,1.58-.84a10.43,10.43,0,0,0-2.09-8.44A6.61,6.61,0,0,0,31,206.78c-2.84.86-4.49,2.69-4.33,5.85.07,1.32,0,2.65,0,4,0,1.68-.83,3-2.49,3.22-1.91.21-3.12-1.11-3.49-2.88a14.75,14.75,0,0,1-.11-3.93c.09-1.41-.75-1.63-1.81-1.75a1.86,1.86,0,0,0-2.29,1.28C14.55,217.18,19.24,224.85,24.12,225Z"/><path class="cls-1" d="M312.6,197.65c-1.05,0-1.46-.86-1.61-1.62-1.39-7.06-5.41-11.43-12.6-12.77-.7-.13-1.72-.86-1.82-1.44-.22-1.27,1-1.53,2-1.72,6.65-1.36,10.88-5.11,12.13-12,.17-.94.58-2.21,1.63-2.31,1.57-.14,1.68,1.47,1.9,2.49,1.36,6.53,5.26,10.4,11.8,11.69.91.17,2.12.32,2.26,1.59.11,1-.86,1.46-1.59,1.59-7.48,1.28-11.43,5.94-12.85,13.12C313.72,197,313.43,197.59,312.6,197.65Zm11.15-16.09c-6.82-.77-9.58-5.19-11.46-11.08-1,6.56-5.11,9.59-11,11.37,6.43,1,9.48,5,11.31,10.84C313.8,186.33,317.57,183.16,323.75,181.56Z"/><path class="cls-1" d="M196.18,39.07c-6.33,1.37-11.88.25-16.14-5a13.46,13.46,0,0,1-.31-16.63,14,14,0,0,1,16.37-4.94c2.73,1.11,4.3,8.87,2.11,10.69-1.46,1.22-1.91-.47-2.71-1.11-2.67-2.13-5.5-2.52-8,0a4.77,4.77,0,0,0-.56,6.4,4.91,4.91,0,0,0,6.63,1.69c4.55-2.33,4.22,0,3.52,3.17-.42,1.93-.66,3.91-1,5.86Zm-1.25-6.6c-1,.12-1.76.26-2.56.33-3.07.26-5.7-.69-7.21-3.44a7.47,7.47,0,0,1,.69-8.46c1.91-2.55,4.66-3,7.64-2.33,1.4.3,3,2.08,3.7-1,.57-2.66-1.16-3.16-3-3.63A11.4,11.4,0,0,0,182,17.69a11.21,11.21,0,0,0-2,12.56c1.95,4.45,5.58,6.85,10.5,7.28C193.82,37.83,195.61,36.71,194.93,32.47Z"/><path class="cls-1" d="M195.46,304.61c1.32,1.68,2.92,1.35,4.32,1.61,3.62.69,6,2.73,6.79,6.4a8.41,8.41,0,0,1-3.4,9.22,12.64,12.64,0,0,1-11.31,2.24c-2.06-.6-5.08-.67-4-4.3.85-2.73,1.44-5.83,5.62-3.66a3.41,3.41,0,0,0,3.61-.48c-1.08-1.78-3-1.67-4.57-1.92-4-.64-6.29-2.91-6.88-6.8-.62-4.06,1.14-7.13,4.58-9.2a10.66,10.66,0,0,1,7.17-1.53c2.23.35,5.61-.32,5.13,3.64-.39,3.22-1.66,5.82-5.8,4.26C196.54,304,196.17,304.31,195.46,304.61Zm-1,17.88c1-.06,1.68-.05,2.34-.13,4.77-.59,7.82-3.43,7.95-7.42.16-4.93-2.94-6.62-7.16-7.19a20.2,20.2,0,0,1-2.45-.41c-1.18-.31-2.23-.93-2.31-2.27a2.59,2.59,0,0,1,2.35-2.76,30.2,30.2,0,0,1,3.45-.17c1.25-.12,1.49-1.17,1.68-2.14.29-1.44-.79-1.65-1.8-1.67a19.92,19.92,0,0,0-5,.16c-3.57.85-5.87,3.05-5.95,6.95-.1,4.06,2.19,6,6,6.53a24.65,24.65,0,0,1,3.44.55c1.33.38,2.47,1.2,2.48,2.74,0,1.78-1.29,2.65-2.8,3a7.51,7.51,0,0,1-4.41-.33c-1.63-.57-1.94.74-2.32,1.83s.34,1.92,1.36,2.2A24.82,24.82,0,0,0,194.5,322.49Z"/><path class="cls-1" d="M22.36,165.67a3,3,0,0,1,1.92,2.64c1.27,6.32,4.86,10.25,11.3,11.52,1,.2,2.62.28,2.69,1.77s-1.46,1.76-2.49,2c-6.64,1.25-10.3,5.32-11.59,11.8-.19.93-.4,2.16-1.6,2.26s-1.56-1.25-1.71-2.07c-1.29-7.06-5.72-10.77-12.47-12.29-1.43-.33-3.23-1.22-.76-2.86C11,178.12,20.38,168.82,22.36,165.67Zm-11,16.07c6.31,1.37,9.82,4.95,11.09,11.27,1.48-6.13,4.74-10,11.26-11.27-6.49-1.17-9.61-5.36-11.41-11.19C21.2,177,17.39,180.15,11.34,181.74Z"/><path class="cls-1" d="M278.42,73c4,0,6.48-1.55,9.15-2.28,1.3-.36,2.62-1,3.76,0,1.67,1.58,4.2,3.08,4.14,5.35s-3,2.1-4.74,2.7c-6,2-12,3.86-18,6-2.35.84-4,.58-5.68-1.37s-1.76-3.58-.61-5.8c3-5.75,5.63-11.69,8.7-17.39.78-1.46.88-5.43,3.81-3.38,2.29,1.6,6.16,3.65,3.74,8C281.34,67.29,280.1,69.79,278.42,73Zm0-15.07c-3.73,7.59-6.82,14-10.05,20.37-.79,1.55-.84,2.69.37,4s2.24.91,3.58.46c5.51-1.85,11.08-3.54,16.57-5.45,1.33-.46,4.09,0,3.44-2.41-.6-2.18-2.54-3.15-5.2-2.07-3.92,1.59-8,2.77-12,4.13C274.87,70.45,284.08,66.39,278.42,57.93Z"/><path class="cls-1" d="M122.68,43.3c-5.93,5-7.76,5.22-14.48,1.4,1.73,3.66,1.34,6-2.56,7.26-2.65.89-4,.56-5-2-2.57-5.95-5.24-11.86-8-17.74-1-2.23-.81-3.73,1.68-4.68,3-1.11,5.76-2.61,8.76-3.55,6.14-1.91,12.49,3.25,10.83,9.4-1.12,4.13.43,5.22,3.37,6.59a53.15,53.15,0,0,1,5.5,3.39ZM119,43.19c-2.29-1.27-4-2.2-5.77-3.19-2-1.17-5-1.63-1.79-5.15,1.87-2.08.71-5.16-1.16-7.34-2.46-2.88-14.4-.85-15.71,2.67A3.62,3.62,0,0,0,95,32.55c2.33,5.34,4.74,10.64,7.09,16,.74,1.68,1.6,2.16,3.46,1.31,2.06-.95,1.52-2.11,1-3.61-.67-1.85-2.26-3.49-1.84-5.77C109.59,41.15,112.55,48.65,119,43.19Z"/><path class="cls-1" d="M287.72,262.8c3.84,2.86,1.88,5.26-.3,8-1.72,2.15-3,1.88-4.9.35-5-4.07-10.19-8-15.26-12-1.22-1-3.27-1.89-1.7-3.9,2.65-3.38,4.89-7.21,8.5-9.69a8.17,8.17,0,0,1,12.38,4.71c1,3.88,3,3.85,5.93,4,2.07.11,4.88-1.36,6.1,1.54.6,1.43-4.86,7.05-6.78,7.17A33.15,33.15,0,0,1,287.72,262.8Zm8.1-6.51c-2.61,0-4.27-.07-5.92,0-3.19.19-5.41.36-5.18-4.45.24-5.05-6.48-7.41-10.45-4-2.11,1.82-3.63,4.3-5.55,6.37-1.49,1.61-1.26,2.73.45,4q7,5.25,13.76,10.71c1.4,1.12,2.37,1.41,3.65-.25s1.06-2.5-.51-3.6-3.21-2.57-4.81-3.86a16.81,16.81,0,0,1,8.17-.39C292.94,261.61,294,259.41,295.82,256.29Z"/><path class="cls-1" d="M86.12,61.8c-6.39-.13-12.28-5.37-13.41-11.93-1.08-6.25,3.18-13.18,9.43-15.31,2.5-.86,8.5,4,8.17,6.73-.27,2.17-2.06,1-3.18,1.09-2.34.19-4.29.95-5,3.35a5.35,5.35,0,0,0,1.62,5.89c2.85,2.48,6.79,1.53,8.33-2.61,1.31-3.49,2.44-2.59,3.63-.37s4.68,3.69,2.63,6.77A13.32,13.32,0,0,1,86.12,61.8Zm8.13-11.29c-2.64,2.69-5.17,5.89-9.68,4a7.37,7.37,0,0,1-4.82-6.92c-.18-4.75,3.31-6.37,7-7.72-1.11-4-3.24-4.25-6.33-2.29a12,12,0,1,0,13.8,19.59C97.05,54.93,97.61,52.83,94.25,50.51Z"/><path class="cls-1" d="M261,272c3.21-.69,4.75-5.92,8.64-1.3s-1.9,5.22-2.58,7.8c1.62,1.09,2.33-.29,3-1,2.08-2,3.64-2.72,6,0s1.21,4.12-.86,6c-8.78,8-8.74,8.06-16.5-1-1.41-1.63-3-3.16-4.24-4.89-1.71-2.3-5.93-4.29-4.53-7,2.07-4,6.27-6.8,10.25-9.15,1.94-1.15,2.92,1.55,4.14,2.75a2.15,2.15,0,0,1,0,3.45C263.27,268.86,261.63,269.58,261,272Zm7,9.78a4.9,4.9,0,0,1-3.1-2.74c-.94-1.66.86-2.21,1.6-3.18.87-1.13,3.38-1.61,1.48-3.85s-2.83,0-4,.85c-2.41,1.75-5.31,1.13-5.5-1.37-.15-2,1.9-2.48,3-3.63s1.93-1.83.64-3.31-2.29-.51-3.3.35c-1.77,1.52-3.48,3.12-5.32,4.53-1.69,1.3-1.85,2.37-.3,4,2.65,2.76,5.09,5.71,7.6,8.61,6.1,7.06,7.3,7,13.53-.24.9-1.05,1.38-1.71.3-2.89s-1.86-1.08-2.93-.12S269.16,280.8,268,281.73Z"/><path class="cls-1" d="M258.67,53.58c-1.06-2.51-1.45-4.18-2.39-5.45-1.34-1.82-3.27-2.84-5.67-1.91A5.25,5.25,0,0,0,246.9,52c.23,2.48,1.85,3.62,4.13,4.38,1.4.47,4.12-1.54,4.13,1.63,0,2.65-4.93,6.93-7,6.55-5.24-1-10.28-7.25-10.54-13.16s4.21-11.94,10.31-13.76c5.57-1.66,12.79,1,15.43,5.47a3,3,0,0,1,0,3.66C261.89,48.79,260.54,50.83,258.67,53.58Zm-6.86-14.46a12.11,12.11,0,0,0-11.95,9.42c-1.14,5.15,1.81,10.92,6.59,13.33,2.19,1.11,3.76,1,4.89-1.31,1.34-2.7-1.41-2-2.34-2.6-2.53-1.62-4.44-3.55-4.3-6.76a7.41,7.41,0,0,1,4.6-6.62c3-1.39,5.79-.55,8.19,1.78.8.78,1.34,3.35,3.2.92,1.13-1.48,1.6-2.8,0-4.34A12,12,0,0,0,251.81,39.12Z"/><path class="cls-1" d="M292.12,116.33c7.48.63,14.42,1.32,21.37,1.77,3.08.19,3.68,2.33,4.38,4.58s1.06,4.32-1.48,6.08c-5.33,3.68-10.42,7.7-15.67,11.49-1.39,1-3,3.42-4.55,2-1.87-1.69-3.35-5.37-2-7.17,4-5.47,2.63-8.2-3.11-10.81-2-.91-2.52-4.31-2.16-6.79C289.18,115.4,291.37,116.66,292.12,116.33Zm5.47,23.81c5.76-4.25,11.47-8.53,17.25-12.72a2.85,2.85,0,0,0,1.15-3.81c-.58-1.57-.69-3.23-2.95-3.41-7.25-.6-14.49-1.31-21.62-2-1.41,6.15,5.64,5.09,7,9.87S293,135.58,297.59,140.14Z"/><path class="cls-1" d="M122.79,43.42q1.5-12.32,3-24.61c.45-3.6,3.56-3.28,6-4.13s3.7.45,4.87,2.21c3.57,5.4,7.22,10.74,10.68,16.21.87,1.37,3.38,3.08,1.51,4.56-2.06,1.64-5.09,2.87-7.85,1.3-5.51-3.12-5.76-3-9.7,2.09-2,2.59-5.37,2.87-8.61,2.25ZM125,38.81c.36.52-.91,2.09.95,2.42a3.48,3.48,0,0,0,3.54-1.29c4.64-6.11,6.43-6.55,12.36-2.94a3.64,3.64,0,0,0,4.19-.44c1.48-1.06-.12-2.06-.64-2.86-3.33-5.14-6.82-10.19-10.14-15.34a3.25,3.25,0,0,0-4.17-1.58c-1.79.55-3.25,1-3.51,3.4C127,26.27,125.94,32.32,125,38.81Z"/><path class="cls-1" d="M196.13,39.17c6-5.62,10.67-12.34,16-18.5,2-2.26,3.63-2.82,6.44-1.76S223,21.18,223,24.54c0,6.16.46,12.32.57,18.48,0,1.82,1.06,4.9-1.46,5.06-2.69.18-6.07-.39-7.46-3.74-1.87-4.54-4.26-5.36-8.46-3-4,2.24-6.72-1.21-10-2.29Zm25.37-4.36h-.62c0-3.32-.09-6.64,0-10,.08-2.18-.82-3.19-2.85-4s-3.33-.3-4.67,1.34c-3.77,4.63-7.7,9.12-11.48,13.75-.7.86-2.64,2-.87,3.14,1.11.75,2.62,1.68,4.48.23,4-3.06,9.34-1.09,11.08,3.91.72,2.05,2.35,2.41,3.88,2.33,1.7-.08,1-1.79,1-2.82C221.56,40.12,221.5,37.46,221.5,34.81Z"/><path class="cls-1" d="M159.35,10.41c1.37.15,4-.88,4.39,2,.34,2.24,1.44,5.25-2.34,6-2.43.48-2,2.2-1.91,3.85.22,3.81.36,7.63.68,11.44.28,3.3-1.69,3.81-4.31,4s-4.54-.26-4.63-3.54-.54-6.29-.74-9.44c-.17-2.63.28-5.25-3.8-5.64-2.51-.24-1.95-3.08-2-5-.09-2.22,1.46-2.69,3.29-2.82C151.59,11,155.24,10.71,159.35,10.41ZM155,12.77v0l-6,.5c-1.24.09-2.31.34-2.24,2,.05,1.44.78,2.2,2.19,2,3.39-.51,3.28,1.9,3.45,4q.45,6,.8,11.92c.11,2,1.14,2.49,3,2.33s1.92-1.42,1.83-2.82q-.45-6.45-.88-12.91c-.09-1.48-.46-3.14,1.84-3.3,1.5-.1,3.23,0,2.91-2.29-.36-2.65-2.45-1.52-3.92-1.62A23.13,23.13,0,0,0,155,12.77Z"/><path class="cls-1" d="M214.09,304.93c0-2.83.22-5.68-.05-8.48-.33-3.51.32-5.81,4-7.43s5.46.29,7.51,2.56c3.9,4.33,8,8.51,11.78,12.91,1.13,1.31,4.24,2.65,2.15,4.66-1.71,1.64-4.68,3.54-7.24,2.15-5.28-2.85-8-1.88-9.64,4.09-.69,2.45-4.23,3.51-6.8,3.19s-1.2-3-1.32-4.67c-.2-3-.05-6-.05-9Zm23.63,2.75c-4.79-5.22-9.52-10.29-14.15-15.44-1.36-1.52-2.53-2.22-4.68-1.25s-3.16,1.9-3,4.36c.31,5.63.28,11.27.52,16.89.06,1.32-.84,3.58,1.1,3.75s3.58-.73,3.88-3.48c.37-3.41,7.46-6.47,10-4.3S235.41,309.32,237.72,307.68Z"/><path class="cls-1" d="M48.27,68.53c0-8.11,7.11-15.37,15.08-15.34,7.2,0,13.75,6.82,13.77,14.29,0,7.75-7.29,15.11-14.94,15A14.45,14.45,0,0,1,48.27,68.53Zm26.89-1c0-6.55-5.55-12.27-11.89-12.25-7.08,0-13.44,6.46-13.29,13.44C50.12,75,56,80.55,62.48,80.45,69.08,80.34,75.16,74.15,75.16,67.54Z"/><path class="cls-1" d="M40.42,229.84c-1-2-1.93-3.55.67-5.15,3-1.84,5-2.07,6.63,1.55,1.51,3.32,3.41,6.47,5.2,9.66,1,1.7,1.86,3.38-.54,4.56-1.87.92-3.92,3.54-5.77.09-1.24-2.31-2.62-1.3-4.09-.51-3.65,2-7.39,3.84-10.93,6-3.31,2-3.93-.67-5.14-2.53-1.35-2.07-1.84-3.82,1-5.25,3.55-1.81,7-3.88,10.45-5.85C39,231.78,40.32,231.34,40.42,229.84Zm11.17,7.62c-1.86-3.36-3.79-6.85-5.73-10.32-.56-1-1-2.19-2.62-1.35s-2,1.7-.89,3.15c1.62,2.15.34,3.17-1.51,4.15-3.81,2-7.53,4.21-11.33,6.26-1.58.84-2.26,1.69-1.18,3.51s2,1.72,3.62.78c3.43-2,7-3.82,10.44-5.82,2.12-1.22,4.09-2.58,5.42.91.41,1.11,1.36,1.32,2.44.74A2,2,0,0,0,51.59,237.46Z"/><path class="cls-1" d="M88,280.47c.11,9.09-9.22,15.82-17.67,12.63-4-1.49-6.91-4.56-10.24-7-1.34-1-1.31-2.19-.32-3.45l13.55-17.29a2.13,2.13,0,0,1,2.58-.85C81.28,266.18,88,275,88,280.47ZM73.21,291.8c6.2,0,9.8-2.15,11.78-6.49a10.85,10.85,0,0,0-1.94-12.53c-1.66-1.83-3.86-3.16-5.69-4.85-1.58-1.45-2.62-1.4-4,.4-3.48,4.68-7.14,9.21-10.72,13.81-.7.89-1.85,2-.53,3C65.92,288,69.23,291.86,73.21,291.8Z"/><path class="cls-1" d="M40,107.63a7.91,7.91,0,0,1-.48,2.68c-1.71,3.06-.9,4.88,2.41,5.82s2.88,2.9,1.7,5.37-2.19,4.26-5.54,2.59c-5.65-2.81-11.48-5.23-17.29-7.69-2.71-1.15-3.49-2.63-2-5.34,1.78-3.17,2.7-6.82,5.11-9.65s5.67-3.92,9.39-2.41S39.92,102.91,40,107.63Zm-9.72-7.28a6.26,6.26,0,0,0-5.7,3.45c-1.3,2.31-2.22,4.84-3.53,7.15s-.44,3.23,1.65,4.1c5.06,2.13,10.07,4.38,15.07,6.65,1.66.75,3,1.34,4-1s-.45-3-2.1-3.47c-4-1.08-3.82-3.14-2.39-6.53C39.57,105.35,36,100.45,30.31,100.35Z"/><path class="cls-1" d="M42.56,76.65C49.34,76.84,54,84,50.91,90.11c-1.58,3.13-1.15,4.73,1.82,6.18,3.71,1.8,1.4,3.89.2,6s-2.51,3.18-5.06,1.41C42.55,100,37.08,96.54,31.61,93.1c-2.21-1.39-3.13-2.73-1.26-5.14s3.49-5.25,5.39-7.76A8.48,8.48,0,0,1,42.56,76.65Zm7.74,9.47a6.42,6.42,0,0,0-2.06-4.56c-2.31-2-4.77-3.68-8.07-2.35-1.82.73-8.68,9.28-8.46,10.71a2.62,2.62,0,0,0,1.11,1.52c5.25,3.47,10.57,6.86,15.81,10.34,1.74,1.16,2.31-.11,3.08-1.19s1.18-2.23-.31-2.83c-5.16-2.09-4.76-5.17-1.89-9A7.58,7.58,0,0,0,50.3,86.12Z"/><path class="cls-1" d="M312.2,105.05c.15,2.77-1.79,3-3.14,3.81s-3,1.48-3.81-.42c-1.42-3.16-3.24-1.8-5.18-.8-3.09,1.59-6.32,2.94-9.28,4.75-3.13,1.91-4.56.79-6.1-2.1s-1-4.47,1.94-5.75,5.61-2.83,8.4-4.3c2.21-1.16,5.24-1.67,3.23-5.56-.95-1.84,1.23-2.43,2.48-3s2.89-2.3,3.93-.58C307.48,95.72,309.87,100.65,312.2,105.05Zm-8.75-1.3c1.35-.26,1.73.77,2.22,1.6.69,1.12,1.15,2.53,3,1.54,2.07-1.13,1-2.46.32-3.76-1.48-3-2.95-5.94-4.5-8.87-.44-.84-1-1.86-2.28-1.2-.91.46-2.12,1.12-1.46,2.18,2.75,4.46-1.32,4.84-3.61,6.16-2.58,1.48-5.35,2.65-7.95,4.11-1.49.84-4.25.92-2.57,4.06s3.37.87,4.88.16C295.53,107.85,299.49,105.75,303.45,103.75Z"/><path class="cls-1" d="M248,303.73c-1.86-.15-2.32-1.34-2.92-2.27-3.55-5.6-6.93-11.32-10.62-16.83-2.09-3.11.2-4,2.08-5.31,2.18-1.58,3.94-2.19,5.59.82,1.82,3.35,4.18,6.39,6,9.73,1.44,2.61,2.9,3.38,5.31,1.26s3.88-.91,5.45,1.39c1.86,2.71.95,4.05-1.53,5.44C254.1,299.81,250.93,301.92,248,303.73Zm10-8.62a12.59,12.59,0,0,0-1.66-2.43c-1-.87-1.93,0-2.61.59-3.41,3.14-5.24,1.48-7-1.9s-3.89-6.2-5.75-9.35c-.95-1.6-1.84-2-3.57-1s-1.67,2.07-.66,3.61c2.9,4.47,5.62,9.05,8.57,13.49.8,1.2,1.11,3.86,3.35,2.75A108.69,108.69,0,0,0,258.06,295.11Z"/><path class="cls-1" d="M174.83,23.69c0,3.17-.1,6.34,0,9.5.14,3.48-1.84,4.17-4.76,4.1-2.69-.06-4.54-.71-4.41-3.94.25-6.66.45-13.32.56-20,.06-3.29,2.3-3.12,4.52-3.11s4.36.26,4.24,3.44c-.13,3.33,0,6.66,0,10Zm-2.08.09H173c0-2.82,0-5.64,0-8.46,0-1.63-.1-2.93-2.28-3-2-.05-2.61.85-2.63,2.67,0,5.81-.12,11.62-.27,17.42,0,1.91.74,2.69,2.61,2.73,2.16.05,2.38-1.24,2.35-2.91C172.72,29.42,172.75,26.6,172.75,23.78Z"/><path class="cls-1" d="M18.2,121.21c6.92,2,14.13,4,21.2,6.35,2.83.94,1,3.33.65,5.13s-1,3.74-3.52,3c-7-2-14-4-21-6.06-2.75-.82-1.53-2.9-1.07-4.53C15,123.31,15,120.92,18.2,121.21ZM35.88,133.5c1.61.47,2.09-.67,2.5-1.79s.44-2.41-1-2.84c-6.2-1.83-12.42-3.59-18.63-5.36-1.58-.45-1.93.59-2.28,1.83s-.75,2.38.82,2.84C23.45,130,29.67,131.74,35.88,133.5Z"/><path class="cls-1" d="M97.82,280.75c4.41.46,6.37,4.11,4.21,7.83-3,5.16-6.14,10.24-8.91,15.52-1.6,3.07-3.27,3-5.88,1.39-2.32-1.46-4-2.56-2-5.74,3.38-5.3,6.33-10.88,9.53-16.3C95.45,282.25,96,280.66,97.82,280.75Zm-8,23.73c.43-.31,1-.5,1.16-.86q5-8.55,9.94-17.13c.87-1.52-.38-2-1.31-2.66-1.29-.89-2.31-.94-3.21.66-3,5.31-6.1,10.57-9.17,15.86C85.5,303.35,88.27,303.45,89.82,304.48Z"/><path class="cls-1" d="M315.76,214.67c-6.86-2-13.74-3.95-20.58-6-3.38-1-1.59-3.43-1.19-5.34s1.05-4,3.93-3.1c6.69,2,13.38,4,20.11,5.87,3,.83,2.29,2.94,1.71,4.76S319.19,215.6,315.76,214.67Zm-17.61-12.21c-1.41-.3-2.13.26-2.44,1.69s-.44,2.63,1.33,3.13l18.18,5.09c1.46.42,2.17-.29,2.5-1.62s.32-2.66-1.4-3.15Z"/><path class="cls-1" d="M258,72.69a13.77,13.77,0,0,1-5.59-4.32c-1.26-1.4.2-2.44,1-3.39,4.25-4.92,8.68-9.68,12.75-14.75,2.39-3,4-1.55,6.09.16s3,3.22.7,5.65c-4.41,4.76-8.57,9.77-12.85,14.66C259.43,71.42,258.66,72,258,72.69ZM272,53.74a4.39,4.39,0,0,0-2.35-2.83c-1.18-.77-1.78.37-2.38,1.05-3.93,4.47-7.78,9-11.75,13.44-1.32,1.48-1.08,2.41.27,3.68,1.55,1.45,2.44.88,3.58-.47,3.74-4.41,7.58-8.75,11.36-13.13A20.63,20.63,0,0,0,272,53.74Z"/><path class="cls-1" d="M281,100.93c-2.35-.66-2.92-3-4.14-4.64s-.17-2.68,1.25-3.6c5.72-3.68,11.46-7.33,17.08-11.16,2.7-1.85,3.85-.3,5,1.73,1,1.75,3.16,3.41.15,5.35-6,3.86-11.94,7.79-17.92,11.68A11.27,11.27,0,0,1,281,100.93Zm.47-2.56a5.25,5.25,0,0,0,.91-.37l16.27-10.59c1.5-1,.62-1.94.05-3-.78-1.39-1.69-1.83-3.18-.84-5.11,3.39-10.28,6.71-15.41,10.07-.85.55-1.72,1.2-1,2.39C279.64,97,280,98.24,281.43,98.37Z"/><path class="cls-1" d="M105.6,157.32l2.58,3.43c1.31-2.12.92-3.94.92-5.63,0-15.31.12-30.63,0-45.95,0-3.63.89-4.84,4.73-4.82q55.44.21,110.86,0c3.87,0,4.73,1.23,4.69,4.84-.17,16-.08,32-.05,47.95,0,1.49-.84,4.27,2.51,2.35l-.12-.12c.63,2.26-2.91,2.56-2.75,3.55,1.76,2.93,2.88-.69,4.15,1.05-.22,1.9-3.6.83-2.94,3.32.08.33,1.11.5,1.72.57,1.8.22,2.8-.62,3-2.45a7.18,7.18,0,0,1,.32-2c.52-1.34.17-3.05,1.64-4l-.07-.21c.2,4.23-1.67,8.1-2.11,12.22-.12,1.06-.83,2.28-1.7,2.26-4.61-.11-3.63,3.13-3.64,5.76q-.14,38.7-.24,77.4c0,9.63-1.75,11.38-11.29,11.38-8.82,0-17.67.37-26.47-.09-10.59-.56-18,3.41-21.89,13.42-1.61-.78-1.6-2.32-2.26-3.43-3.75-6.35-9-10-16.64-9.93-10.49.14-21,.06-31.47,0-7.54,0-9.7-2.22-9.72-9.89q-.12-40.46-.18-80.91c0-2.34,1.11-5.65-3.64-4.21-1.28.38-2.31-1.08-2.55-2.56q-.57-3.66-1.12-7.32l-.14.07c1.22,1.33,1,4.12,3.87,3.77.6-.08,1.54-.27,1.69-.66.88-2.2-2.74-1.43-2.41-3.52l4.24,1.14C108.66,161.3,104.64,160.56,105.6,157.32Zm65.78-14.65a8.06,8.06,0,0,1-4.28-2.34c-1.1-1-1.8-.08-2.52.51s-.79,1.29,0,2c3,3,6.59,4.47,10.84,3.58a2.89,2.89,0,0,0,2.08-3.9c-.64-1.53-2,.25-3.16.4,2-2.1,4.06-4.1,5.83-6.35,1.35-1.73,1.08-2.93-1.53-2.16a14.17,14.17,0,0,0,2-9c2.4-5.52-1.36-10.74-7.78-10.71-1.61,0-3.23.24-4.85.37,6-3.47,13.85-.63,14.72,5.78.55,4.08,1.78,8.34-.44,13,7.14-6.29,7.38-16.23,1.06-22.36a15.34,15.34,0,0,0-22.21,1.24c-5.26,6.45-4.41,16,2.37,20.89a21.36,21.36,0,0,1-1-2.16c-2.23-7.55,0-14.08,5.58-16.47-1.05,2-3.57,3-4,5.32-.33,1.71-2.09,4,1.31,4.76-2.63,3.61,1,6.27,1.43,9.4-1-.17-2.56-1-1.66,1.31C166.37,138.9,169.3,140.39,171.38,142.67ZM128.3,124.34c-2.12,2.23-4.83,4-6.69,8.29,5.65-3,11.69-3,14.81-7a65.44,65.44,0,0,0,6.8-10.72c-.62,7.76-4.44,12.92-12,15.29-2,.63-3.79,2-5.66,3-.53.3-1.51.63-.93,1.36,2.47,3.11,1.42,7.57,4.15,10.54,2.56,2.78,7.31,5.64,9.15,4.56,2.69-1.58,5.85-2.71,8.4-4.75,4.24-3.39,9-5.76,14.68-5,1,.13,2.1.15,2.67-.88.85-1.54-.67-2-1.47-2.68-5.58-4.72-7.88-10.68-6.33-17.81,1-4.83,4.09-8.54,9.07-11.91-17.57,0-34,0-50.42,0-3.17,0-3.39,1.72-3.39,4.14,0,22.08.08,44.16-.05,66.24,0,3.32,1.34,3.86,4.17,3.77,5.32-.18,10.65-.07,16-.07,4.49,0,9,0,13.48,0,1.92,0,2.81-1.21,2.44-2.92s-1.43-1.09-2.7-.64c-9.16,3.24-14.17.24-16.18-9.3-.64-3-.28-6.3-2.35-9-4.08-5.36-6.23-12.1-12.12-16.22-2.39-1.66-2.09-3.73-.41-6.74C116.84,129.61,123.58,128.44,128.3,124.34Zm53.41-17.69c.27,1.61,1.63,1.83,2.43,2.57,8,7.39,8.44,18.56.42,26-3.44,3.2-2.49,4.47.87,6.44,4.66,2.74,10,4.78,12.65,10.07,1.85,3.66,4.68,3.58,7.26,1.17a6.61,6.61,0,0,1,4.93-1.72c7.15-.11,11.64,4.3,11.65,11.48,0,4.5-.13,9,.06,13.5.07,1.63-1.41,4.37,2.1,4.51,3.69.14,3.08-2.54,3.24-4.84.37-5.26-.67-10.4-.37-15.77.94-16.45.31-33,.38-49.48,0-2.66-.75-4-3.67-4C209.7,106.7,195.75,106.65,181.71,106.65Zm-12.6,123v0h-50c-8.17,0-7.76,0-8.3,8.16-.37,5.45,1.75,6.19,6.47,6.16,33.64-.17,67.27-.09,100.91-.09,9.28,0,9.1,0,9.29-9.24.08-3.85-.92-5.16-5-5.11C204.75,229.78,186.93,229.66,169.11,229.66Zm.1-17.38h50c8.27,0,8,0,8.36-8.1.23-4.75-1.43-5.72-5.85-5.7-34,.18-68,.1-102,.1-8.78,0-8.54,0-8.83,8.57-.15,4.26,1.23,5.27,5.32,5.22C133.88,212.16,151.54,212.28,169.21,212.28ZM169.07,278c5.29-9.46,13.2-12.19,23-11.75,9.13.41,18.3.11,27.45.06a18.22,18.22,0,0,0,4.89-.62,3,3,0,0,0,2.32-2.95c-.11-2.16-2-1.4-3.08-1.4q-54.42-.07-108.84,0c-1.16,0-3-.7-3.2,1.29a3.28,3.28,0,0,0,2.65,3.26,16.43,16.43,0,0,0,4.44.45c8.82,0,17.66.4,26.45-.09C155.25,265.62,163.6,268.1,169.07,278ZM201,167.83h.11c0-2.65,0-5.31,0-8,0-1,.13-2.43-.42-2.84-3.64-2.7-7.71-2.07-11.82-1.23-3,.61-4.59,1.9-4.25,5.32s.05,6.62.07,9.94c0,2.48-.81,5.54.33,7.31,1.81,2.8,4.66-.3,7.06-.52,3-.28,7.1,2.33,8.63-.26S201,171.14,201,167.83Zm18.1.25c0-2.49,0-5,0-7.46-.08-4.65-2-5.93-6.3-3.88-2,1-3.35,1.13-5.3-.21-2.83-1.95-4.92-.71-5.05,2.78s-.07,7,0,10.45c0,2.8-.71,6.17.58,8.23,1.16,1.86,4.5-.58,6.92-.13a1.62,1.62,0,0,0,.49,0c2.86-.44,6.38,2.85,8.16.41,1.45-2,.45-5.75.53-8.73C219.08,169.08,219.07,168.58,219.07,168.08ZM121.2,139.67c-1-.82,0-2.92-1.74-3.1-1.4-.14-1.52,1.55-2.41,2.24-1.89,1.48-2,3.14.11,4.33,3.61,2,4.9,5.72,6.86,8.94,1.41,2.32,2.38,5,4.9,6.78,1.35-5.94-3.62-20.9-7.9-24.27C121.58,136.31,122.82,138,121.2,139.67Z"/><path class="cls-1" d="M101.8,163.35l-1.35-2.1c-1.48.91-.6,2.33-.53,3.43,1.13,17.46,2.27,34.91,3.59,52.35.27,3.62-.72,5.36-4.56,5.25-1.53-.05-3.71-.13-4.1,1.9-.31,1.65,1,3.09,2.2,4.26.24.23.54.38.8.6,1.71,1.44,4.75,3.11,3.41,5.19s-4.51,1-6.81-.3A27.11,27.11,0,0,0,90,231.79c-2.87-.94-4.11-2.28-2.88-5.53s-1.94-6-5.24-4.53c-2,.92-3.72.67-5.67.49-.73,4.76,1.47,8.2,4.15,11.48.61.75,1.63,1.74,1.49,2.41-.26,1.27-1.77,1.24-2.91,1.41A9.29,9.29,0,0,1,68.44,226.6c.38-1.84.86-3.46-1-4.91-1.34-1-.78-2.79-.76-4.25.18-12.16.29-24.33.66-36.48.09-3.09-.87-4.45-3.9-4.12s-4-1-3.94-4c.2-6.49-1.48-13.49.41-19.38,2.8-8.67,1-17.62,3.57-26.09,1.79-6,4.66-11,11.49-12.5,3.32-.74,5.86-2.09,3.58-6.6-1.8-3.55-2.61-7.63-3.66-11.52-1-3.63,6-14.23,10-15.52,4.27-1.37,7.74,2,11,7.87,4.25,7.7.78,14.12-1.83,20.82-.73,1.89-2.31,3.49-.14,5.24,8,6.47,9.46,16,12,25.13,1.13,4.14-1.32,7.77-.27,11.65-1.85-.56-1.69-4.38-4.17-3.19-2,.94-2.27,3.43-1.61,5.67.37,1.26.76,2.52,1.19,3.76.59,1.71,1.29,3.39.71,5.26ZM71.33,160c0-1.91.12-4.4,0-6.87s-1.63-3.65-4.33-3.42c-3,.27-2.28,2.4-2.13,4,.6,6.91,2.94,13.6,2.75,20.63A2.37,2.37,0,0,0,69.9,177a3.75,3.75,0,0,0,3.57-1.17c1-1.19,1.39-2.53.37-3.56C70.43,168.83,71.87,164.51,71.33,160Zm16.82-59.25c-1.1,1.36.79,2.37.22,3.35-1.31,2.21.43,2.5,1.73,3.07,1.65.71,2.93.38,3.57-1.44A47.52,47.52,0,0,0,95.25,101c.49-2.1.11-3.51-2.67-3.36a113.61,113.61,0,0,1-12,0c-2.53-.13-2.9,1-2.41,3,.34,1.44.77,2.86,1.23,4.27.56,1.68,1.29,3.18,3.54,2.34,1.6-.59,2.85-1,2.15-3.45-.26-.92-.91-4.3,2.44-4.28,1.67,0,3-2.6,4.91-.67.29.29.6,1,.46,1.17C91.64,102.06,89.6,100.16,88.15,100.71Zm3.18,12.78c-3.2,2.8-6,3.14-8.59.19-.5-.55-1.16-1.33-2-.48s-1.55,1.77-.87,3c1.62,3,3.73,5.9,7.52,5.38S92,118,91.33,113.49ZM92.4,121c-4.46,4.1-8.21,2.49-12.09.49,1.82,3.68,3.87,7.77,8.1,7.58C91.36,129,92.35,125.23,92.4,121Zm-16,52.24.62.12V155h-.62Z"/><path class="cls-1" d="M260.49,102.56c.48,2.09-.49,4-1.34,5.62-2.35,4.38-.88,6.55,3.5,7.47,7.55,1.59,10.26,7.42,11.73,13.92,2.26,10,1.3,20-1.77,29.8.08-1.82,0-3.65.27-5.46.29-2.25-.29-3.36-2.82-3.45s-3.58.84-3.47,3.42c.15,3.15.06,6.3,0,9.45,0,2-.24,3.95-1.73,5.54-1,1-3.25,1.69-1.25,3.84a4.25,4.25,0,0,0,3.49,1.67c2.11-.21,2.35-2,2.52-3.66.34-3.29.76-6.55,2.59-9.43-4.33,18.64,0,37.52-1.65,56.16-.5,5.54.43,11.93-3.5,17-3.66,4.69-5.6,5.12-11.84,2.48,2.52-2.93,4.93-5.94,6-9.6.55-1.89,1.84-5-2.7-3.9-.93.22-2.1-.8-3.21-1.05-3-.69-5.53,1.57-4.34,4.31,1.67,3.84-.15,5.13-3.32,6-3,.86-5.27,3.59-8.75,3.2-2.53-.27-3.54-1.11-1.45-3.28,1.49-1.54,3.32-2.79,4.6-4.48,1.65-2.18,2.79-4.93-1.71-4.74-5.81.26-6.79-2.47-6.36-7.62,1.4-16.73,2.42-33.5,3.56-50.26.15-2.14.47-4.34-.84-6.3l.07.21c-.15-2.49,1.73-4.75.92-7.3-.37-1.18-.36-2.93-2.2-2.8-1.39.09-1.46,1.48-1.89,2.56-1,2.42-.1,5.31-2,7.48l.12.12c.88-9.79-1.61-19.84,2.66-29.4,2.25-5,4-10.26,8.63-13.77,2-1.55,2-3.32.68-5.22a12.87,12.87,0,0,1-2.3-8.22c0-.36.12-.74.18-1.11,1.59,1,1.11,3,1.92,4.35s1.44,2.76,3.3,1.95c1.3-.58,3.28-.57,2.37-3.28-.44-1.33.72-3.19,1.56-6.27.82,3.08,2,4.93,1.53,6.27-.87,2.69,1.07,2.72,2.39,3.28,1.9.82,2.44-.66,3.26-2s.26-3.76,2.32-4.64Zm-14.3,11.57c-.56,4.24-.21,7.33,3.48,8.14,3.88.85,6.07-1.91,7.82-4.92a2.57,2.57,0,0,0-.35-3.21c-1.32-1.52-2.15-.08-2.79.61C251.67,117.65,249.08,116.67,246.19,114.13Zm-1.51,7.29c.8,4.33,1.28,7.48,4.65,8.45,2.22.64,6.44-4.12,7.41-8.16C252.93,125.14,249.18,125.69,244.68,121.42Z"/><path class="cls-1" d="M157.65,73.68c1.66-3.55,3-6-1.31-7.49-1.92-.67-1.57-3.14.14-4.55a9.45,9.45,0,0,1,2.73-1.09c-1.21-2.91,2-4.61,1.92-7.69,2.13,1.92,3.9,3,5.57-.4.83-1.69,3.47-1.4,4.16.28,1.56,3.77,3.18,1.82,4.37.7,3-.85-2.19,5.17,2.77,2.28.1,0,.31.09.47.14-2.35,4.13,2.61,5.17,3.34,8,.26,1-.15,2.39-1.09,2.57-5,1-1.81,4.08-1.72,6.43-1.79,1-3.14-.54-4.67-.76-1.13-.17-2.52-2.06-3.3-.18a3.69,3.69,0,0,0,1.36,4.87c3.42,2,6.71,1.88,9.52-1.09a28,28,0,0,0,2.65-4c2.33,3,3.45,7.61,8.51,6.11,2.39-.71,4.21-2,3.57-5.37l-8,2c1.23-3.25,3-6.21-1.33-7.82-.83-.31-.91-1.87-.35-2.74,1.43-2.22,5.74-2.87,3.7-7l5-.75c.75.37,1.19,0,1.61-.59,2.42-3.42,4.24-2.92,6.13.65,1.43,2.69,2.44-.78,3.5-.63,2.23.13-2.1,4.08,2.19,3.07,1.05-.25.28,1.25,0,1.85-.84,1.59-.78,2.42,1.18,3.35,2.39,1.13,3,4.31.62,5.08-4.22,1.38-2.87,3.86-2.2,6.41-2.77.94-4.3-1.92-6.64-1.66.3,4.94,2.32,6.71,7.21,6.34,1.91-.14,3.88-1.16,5.42,1.06s3.17,1.57,4.79-.29c1.9-2.18,1.19-2.92-1.29-3.5-1-.23,1-9,2-8.79,3,.68,5.76-1.78,6.75-2.71,5-4.7,8.12,2,12.42,1.56-2,1.37-5,2.32-5.79,4.19-1.92,4.65-5,7.41-9.17,10.06-2.16,1.39-4.17,4.29-5.39,7.38-1.53,3.89-3.5,7.3.19,11a1.52,1.52,0,0,1-.07,2.24,3.8,3.8,0,0,1-4,1.21c-18.63-4.7-37.65-4.23-56.63-4.06-12.51.11-25,.85-37.15,4-1.92.5-3.39.1-4.35-1.41s.46-2.26,1.38-3.25c2.22-2.39.44-6.5-.11-7.39-2.89-4.81-3.34-12-10.79-13.15-.56-.09-1.5-.8-1.46-1.14.65-5.93-4.89-6.73-8.35-9.88,5.57-2.06,9.82-3.52,15.87.1,3.92,2.34,5.66,3.47,5,7.72-.06.44,1.12,1.06,1.78,1.65-.87,1.58-3.88.29-3.62,2.45.15,1.21,1.63,2.52,2.83,3.28a2.6,2.6,0,0,0,3.83-1.16c1.37-2.54,3.42-1.22,5.28-1.09,4.63.33,6.78-1.73,6.92-6.71-2.34.22-3.94,2.46-6.69,2.29,0-2.42,2-5.82-2.58-6.62-.94-.17-1.87-2.52-1.09-2.87,3.41-1.5,3.17-5.24,4.33-7.68s.73-3.42,3.1-1.34c2.6-4.24,5.45-4,9.18-1.14,1,.75,4.87,1.73,4.44,3.3-.54,2,.69,2,1.95,2.59,2.41,1.07,3.63,3.71,1.33,5-3.88,2.18-2.18,4.35-.73,6.84-3,.85-5.17-.93-7.73-1.2-1.1,2.85.3,4.46,2.8,5.22,4.93,1.48,6.75-2.19,8.54-5.7,2.11.55,2,2.61,3.08,3.75,3,3.15,9,3,10.32-.38.46-1.21.75-2.77-.19-3.8-.79-.88-1.77.25-2.66.53C161.53,72.51,160.12,72.93,157.65,73.68Zm7,5.79.2-.13c-2.94.47-5.89,1.09-8.63-.76-1.95-1.08-3.69-1.65-5.82,0-1.95,1.56-4.75,2.47-6.91.93-4-2.88-6.81-1.51-9.48,1.72-5.07,6.53-11.17,4.24-17.82,1.7,1.51,2,6.2,1.75,2.1,5.93,6.71-1.45,12.34-2.92,18.15-3.22,1,0,2.13-.19,2.73.77.73,1.16-.35,1.75-1.05,2.41-1.53,1.46-1.63,2.82.26,4.06,1,.67,3,.7,2.51,2.48s-2.49,1.17-3.89,1.38c-6,.91-12.15.94-17.67,4a299.44,299.44,0,0,1,97.12-.1c-5.09-3.22-11-2.72-16.56-3.83-1.22-.24-3.08.4-3.28-1.41s2-1.82,3.09-2.72c1.51-1.3,4.23,2.06,4.65-.54.47-2.82-3.47-.36-4.54-2.39-.56-1.08-2.85-1.21-2.5-2.74.46-2,2.43-1.27,3.8-1.15,3.81.33,7.77.46,11.23,2.1,3.85,1.82,4.63.24,4.51-3.5-5.41,3.65-9.1,1.09-12.25-3.27C204,81,203,81,202.79,80.61c-2.19-3.72-5-3.1-8.19-1.49-2.15,1.1-4.55,1.49-6.53-.15-2.61-2.17-4.82-1.19-7.12.34-3.32.67-6.63,1-9.82-.6l-.83-1.27c-1.76-1.93-.49-4.66-1.93-6.9C168.74,74.32,167.6,77.3,164.63,79.47ZM103.09,68.59a37,37,0,0,1,7.91,7c2.26,2.74,3.45,1.53,4.4-1.16.9-2.52,2.66-5.31-2.54-3.79a3,3,0,0,1-2.6-1.14C108.39,66,106,66.56,103.09,68.59Zm120,2c-1.65-1.08-2.92,0-2.66.53.85,1.77.77,4,2.52,5.36,1.06.83,1.81,1.14,2.74-.24a21.89,21.89,0,0,1,5.59-5.52c1.13-.8,1.94-1.35.41-2.91s-2.16-1.3-3.29.26C227,70,225.14,71.22,223,70.57Zm-31,.8c2.58-.61,5.67-1.54,4.71-3.26-2.57-4.59-1-6.68,3.1-8.44.7-.29,1-1.64,1.37-2.54a1,1,0,0,0-.67-1.55,1.14,1.14,0,0,0-1.5.84c-1.72,4.65-5.42,7-11.34,8.8C193.1,65.3,193.81,67.65,192.05,71.37Zm-17.37-1.55c1.72-1.5-.84-4.62,2.54-4.9.9-.08,2.39.66,2.41-.76,0-1.92-1.46-1-2.53-.87-1.28.2-1.65-.67-1.84-1.77-.21-1.33-1.15-1-1.76-.46A5.26,5.26,0,0,0,174.68,69.82Zm-13.43.39c5.3-1.79,5.3-1.79,1.39-10.37.48,5.17-3.82,2.22-5.86,5.07C162.24,63.87,162.76,66.39,161.25,70.21ZM205.15,62c-1.64,3.08-2.13,4.77-3.5,6.12-1.89,1.87.61,2.35,1.49,3.15s2.31.79,2.09-.63c-.61-4,3-2.57,5-3.73C208.49,65.07,205.32,66.28,205.15,62ZM131.21,72.63c8.66-3,1.37-6.48,1.18-9.83-.61,2.86-3.13,2.88-6,4.46C132.52,65.69,132.28,68.69,131.21,72.63Zm11-10.56c0,3.71-5.08,8.18,3.14,9.22-2.11-3.64-.66-5.62,4.14-6.39C144.93,64.16,144.93,64.16,142.25,62.07Zm65.48,31.08c2.56,1.3,4.26,4.15,7.52,2.23.83-.48.79-1.31.16-2.09C213.11,90.46,210.66,91.28,207.73,93.15Zm-80.55-.84c-2.18-.87-4.51-1.7-6.59.58-.81.88-.63,1.83.56,2.35,2.84,1.25,4.61-.53,6.37-2.31C127.55,92.9,127.38,92.67,127.18,92.31Z"/><path class="cls-1" d="M260.49,102.56c-.07-.38-.13-.76-.2-1.14-.5-2.09-1.41-3.21-4-3a66.39,66.39,0,0,1-11.28,0c-2.82-.24-3.29,1.22-3.4,3.37-.06.37-.13.75-.18,1.11-2.71-1.64-2.65-5.1-2.13-6.8,1.17-3.85,2.35-8,5.13-11.15s6.08-4.52,10.16-2.15C260.22,86,263.3,96.3,260.49,102.56Z"/><path class="cls-1" d="M107.39,33.46c-.5,2.08-1.88,4-3.87,3.75-2.42-.27-2.63-3.15-3.12-5-.56-2.09,1.74-2,3-2.17C105.74,29.78,107,31.19,107.39,33.46Z"/><path class="cls-1" d="M277.64,251.38c2.13.44,3.44,1.56,3.25,3.71-.14,1.64-.77,3.86-2.63,3.43-2-.47-4.68-1.75-4.64-4.24C273.66,252.63,275.75,251.55,277.64,251.38Z"/><path class="cls-1" d="M309.61,124.44c-.82,2.51-2.73,3-4.12,4-.95.68-2.14,2.46-3.25,1.24a6.5,6.5,0,0,1-1.3-4.59c.21-1.81,2.14-.91,3.3-1C305.88,124.07,307.52,124.3,309.61,124.44Z"/><path class="cls-1" d="M131.93,23.09c2.42,1.2,2.86,3.08,3.8,4.53.62,1,2.28,2.27.7,3.32a6.47,6.47,0,0,1-4.66.91c-1.59-.4-.63-2.25-.54-3.47C131.34,26.77,131.65,25.17,131.93,23.09Z"/><path class="cls-1" d="M216,27.42c.27,3,1.91,6.13-.54,8.26-.93.82-4.53-.39-4.57-1.64C210.76,31,213.62,29.3,216,27.42Z"/><path class="cls-1" d="M220.8,296.25c2.88,3.26,6,4.65,5.81,7.8-.07,1.12-3.65,2.62-4.52,1.83C219.73,303.76,221,300.57,220.8,296.25Z"/><path class="cls-1" d="M70,68.05a7.23,7.23,0,0,1-7.3,7.24c-4.2,0-7.8-3.62-7.62-7.6a7.78,7.78,0,0,1,8-7.26A7.29,7.29,0,0,1,70,68.05ZM63,73.16c3.34-.21,5.21-2.29,5-5.42s-1.83-5.29-5.4-5.14-5.54,2.26-5.4,5.68S59.67,73.13,63,73.16Z"/><path class="cls-1" d="M73.16,287.32a6.11,6.11,0,0,1-4.81-2.64c-1.26-2,1.3-3,2.13-4.42a37.79,37.79,0,0,1,3.28-4.32c2.93-3.71,4.88-3.48,6.91.76C82.87,281.33,79.07,287.32,73.16,287.32Zm.61-2.16a5.63,5.63,0,0,0,5.64-5.06c.1-1.89-.38-3.64-2.51-4.19-.75-.19-6.16,6.52-6.08,7.48C71,285.3,72.54,285,73.77,285.16Z"/><path class="cls-1" d="M31,113.47c-1.5-1.54-5-.82-5-3.81a4,4,0,0,1,3.66-4c2.17-.09,4,1.06,4,3.44C33.59,110.76,33.22,112.68,31,113.47Z"/><path class="cls-1" d="M42.22,92c-1.38-1.84-4.9-1.67-4.42-4.64A3.87,3.87,0,0,1,42,83.93c2,.28,3.85,1.54,3.4,4A4.68,4.68,0,0,1,42.22,92Z"/><path class="cls-1" d="M204.58,81.2c1,2.33.24,3.49-2.33,3.3-6.89-.53-13.78-1-20.66-1.66-3.89-.37-2.41-2-.64-3.53,2.3-1.53,4.51-2.51,7.12-.34,2,1.64,4.38,1.25,6.53.15,3.16-1.61,6-2.23,8.19,1.49C203,81,204,81,204.58,81.2Z"/><path class="cls-1" d="M156.2,78.58C158.4,81,159,82.73,154.69,83c-5.91.32-11.8.82-17.71,1.15-1.85.11-3.93.15-3-2.83,2.67-3.23,5.46-4.6,9.48-1.72,2.16,1.54,5,.63,6.91-.93C152.51,76.93,154.25,77.5,156.2,78.58Z"/><path class="cls-1" d="M171.13,78.71c1.12.68,2.56,1.36,1.94,2.94a2.26,2.26,0,0,1-3,.95c-1.72-1.1-7,3.25-5.21-3.26l-.2.13c2-.26,3.29-2.73,5.67-2Z"/><path class="cls-1" d="M178.81,134.29c-.33,1.73-.74,3.46-3.11,2.48a6.34,6.34,0,0,0-5.3-.1c-2.69,1.28-3-.75-3.77-2.35,5.8,3.53,4.12-2.66,5.74-4.5C175.83,129.51,172.68,138.55,178.81,134.29Z"/><path class="cls-1" d="M167.65,124c3.8-4.47,8.5.08,12.61-1.27l.52,2.82A19.31,19.31,0,0,0,167.65,124Z"/><path class="cls-1" d="M177.68,90C171.6,86.92,166,86,160,90l4.64,1.87c1.18.48,3,.53,2.74,2.27-.19,1.32-1.78,1.3-2.93,1.33q-7.49.2-15,.32c-.81,0-1.77,0-2.2-.8-.62-1.27.47-1.73,1.28-2.27,2.44-1.61,2.63-3.15.09-5-2.38-1.68-1.34-2.65.93-2.85A233.84,233.84,0,0,1,188,85c.81.06,1.73.09,2,1.08s-.51,1.4-1.28,1.78c-2.66,1.3-3.75,2.88-.75,5,.67.49,1.43.94,1.07,2s-1.27,1-2.07,1q-7.48-.12-15-.33c-1,0-2.2-.19-2.39-1.36s.89-1.61,1.87-1.94Z"/></g></g></svg>